<mxfile host="app.diagrams.net" agent="Mozilla/5.0 (Windows NT 10.0; Win64; x64) AppleWebKit/537.36 (KHTML, like Gecko) Chrome/130.0.0.0 Safari/537.36" version="25.0.1">
  <diagram name="Trang-1" id="WVpL6d7BMUk6t8sLkdeg">
    <mxGraphModel dx="1677" dy="885" grid="1" gridSize="10" guides="1" tooltips="1" connect="1" arrows="1" fold="1" page="1" pageScale="1" pageWidth="1654" pageHeight="2336" math="0" shadow="0">
      <root>
        <mxCell id="0" />
        <mxCell id="1" parent="0" />
        <mxCell id="loLpUnOwnIB5S4eLljjq-3" value="Lưu đồ giải thuật cho Gateway" style="swimlane;whiteSpace=wrap;html=1;" vertex="1" parent="1">
          <mxGeometry x="280" y="130" width="640" height="710" as="geometry" />
        </mxCell>
        <mxCell id="loLpUnOwnIB5S4eLljjq-1" style="edgeStyle=orthogonalEdgeStyle;rounded=0;orthogonalLoop=1;jettySize=auto;html=1;exitX=0.5;exitY=1;exitDx=0;exitDy=0;entryX=0.5;entryY=0;entryDx=0;entryDy=0;" edge="1" parent="loLpUnOwnIB5S4eLljjq-3" source="loLpUnOwnIB5S4eLljjq-2" target="loLpUnOwnIB5S4eLljjq-14">
          <mxGeometry relative="1" as="geometry" />
        </mxCell>
        <mxCell id="loLpUnOwnIB5S4eLljjq-2" value="&lt;span&gt;Bắt đầu và khởi tạo&lt;/span&gt;" style="ellipse;whiteSpace=wrap;html=1;fontStyle=1" vertex="1" parent="loLpUnOwnIB5S4eLljjq-3">
          <mxGeometry x="180" y="60" width="120" height="80" as="geometry" />
        </mxCell>
        <mxCell id="loLpUnOwnIB5S4eLljjq-19" style="edgeStyle=orthogonalEdgeStyle;rounded=0;orthogonalLoop=1;jettySize=auto;html=1;exitX=0.5;exitY=1;exitDx=0;exitDy=0;entryX=0.5;entryY=0;entryDx=0;entryDy=0;" edge="1" parent="loLpUnOwnIB5S4eLljjq-3" source="loLpUnOwnIB5S4eLljjq-16" target="loLpUnOwnIB5S4eLljjq-4">
          <mxGeometry relative="1" as="geometry" />
        </mxCell>
        <mxCell id="loLpUnOwnIB5S4eLljjq-27" style="edgeStyle=orthogonalEdgeStyle;rounded=0;orthogonalLoop=1;jettySize=auto;html=1;exitX=0;exitY=0.5;exitDx=0;exitDy=0;" edge="1" parent="loLpUnOwnIB5S4eLljjq-3" source="loLpUnOwnIB5S4eLljjq-16">
          <mxGeometry relative="1" as="geometry">
            <mxPoint x="239.99999999999977" y="300" as="targetPoint" />
            <Array as="points">
              <mxPoint x="80" y="390" />
              <mxPoint x="80" y="300" />
            </Array>
          </mxGeometry>
        </mxCell>
        <mxCell id="loLpUnOwnIB5S4eLljjq-16" value="Nhận dữ liệu mới" style="rhombus;whiteSpace=wrap;html=1;fontStyle=1" vertex="1" parent="loLpUnOwnIB5S4eLljjq-3">
          <mxGeometry x="155" y="350" width="170" height="80" as="geometry" />
        </mxCell>
        <mxCell id="loLpUnOwnIB5S4eLljjq-20" style="edgeStyle=orthogonalEdgeStyle;rounded=0;orthogonalLoop=1;jettySize=auto;html=1;exitX=0.5;exitY=1;exitDx=0;exitDy=0;entryX=0.5;entryY=0;entryDx=0;entryDy=0;" edge="1" parent="loLpUnOwnIB5S4eLljjq-3" source="loLpUnOwnIB5S4eLljjq-4" target="loLpUnOwnIB5S4eLljjq-18">
          <mxGeometry relative="1" as="geometry" />
        </mxCell>
        <mxCell id="loLpUnOwnIB5S4eLljjq-4" value="Tách chuỗi dữ liệu" style="rounded=1;whiteSpace=wrap;html=1;fontStyle=1" vertex="1" parent="loLpUnOwnIB5S4eLljjq-3">
          <mxGeometry x="160" y="470" width="160" height="80" as="geometry" />
        </mxCell>
        <mxCell id="loLpUnOwnIB5S4eLljjq-26" style="edgeStyle=orthogonalEdgeStyle;rounded=0;orthogonalLoop=1;jettySize=auto;html=1;exitX=0.5;exitY=0;exitDx=0;exitDy=0;" edge="1" parent="loLpUnOwnIB5S4eLljjq-3" source="loLpUnOwnIB5S4eLljjq-6">
          <mxGeometry relative="1" as="geometry">
            <mxPoint x="240" y="300" as="targetPoint" />
            <Array as="points">
              <mxPoint x="480" y="300" />
              <mxPoint x="240" y="300" />
            </Array>
          </mxGeometry>
        </mxCell>
        <mxCell id="loLpUnOwnIB5S4eLljjq-6" value="Gửi lên Blynk" style="rounded=1;whiteSpace=wrap;html=1;fontStyle=1" vertex="1" parent="loLpUnOwnIB5S4eLljjq-3">
          <mxGeometry x="400" y="590" width="160" height="80" as="geometry" />
        </mxCell>
        <mxCell id="loLpUnOwnIB5S4eLljjq-25" style="edgeStyle=orthogonalEdgeStyle;rounded=0;orthogonalLoop=1;jettySize=auto;html=1;exitX=1;exitY=0.5;exitDx=0;exitDy=0;entryX=0;entryY=0.5;entryDx=0;entryDy=0;" edge="1" parent="loLpUnOwnIB5S4eLljjq-3" source="loLpUnOwnIB5S4eLljjq-18" target="loLpUnOwnIB5S4eLljjq-6">
          <mxGeometry relative="1" as="geometry" />
        </mxCell>
        <mxCell id="loLpUnOwnIB5S4eLljjq-18" value="Gửi lên Blynk" style="rounded=1;whiteSpace=wrap;html=1;fontStyle=1" vertex="1" parent="loLpUnOwnIB5S4eLljjq-3">
          <mxGeometry x="160" y="590" width="160" height="80" as="geometry" />
        </mxCell>
        <mxCell id="loLpUnOwnIB5S4eLljjq-11" value="&lt;b&gt;Đúng&lt;/b&gt;" style="text;html=1;align=center;verticalAlign=middle;whiteSpace=wrap;rounded=0;" vertex="1" parent="loLpUnOwnIB5S4eLljjq-3">
          <mxGeometry x="240" y="430" width="60" height="30" as="geometry" />
        </mxCell>
        <mxCell id="loLpUnOwnIB5S4eLljjq-24" value="&lt;b&gt;Sai&lt;/b&gt;" style="text;html=1;align=center;verticalAlign=middle;whiteSpace=wrap;rounded=0;" vertex="1" parent="loLpUnOwnIB5S4eLljjq-3">
          <mxGeometry x="90" y="360" width="60" height="30" as="geometry" />
        </mxCell>
        <mxCell id="loLpUnOwnIB5S4eLljjq-17" style="edgeStyle=orthogonalEdgeStyle;rounded=0;orthogonalLoop=1;jettySize=auto;html=1;exitX=0.5;exitY=1;exitDx=0;exitDy=0;entryX=0.5;entryY=0;entryDx=0;entryDy=0;" edge="1" parent="loLpUnOwnIB5S4eLljjq-3" source="loLpUnOwnIB5S4eLljjq-14" target="loLpUnOwnIB5S4eLljjq-16">
          <mxGeometry relative="1" as="geometry" />
        </mxCell>
        <mxCell id="loLpUnOwnIB5S4eLljjq-14" value="Nhận dữ liệu GPS" style="rounded=1;whiteSpace=wrap;html=1;fontStyle=1" vertex="1" parent="loLpUnOwnIB5S4eLljjq-3">
          <mxGeometry x="160" y="180" width="160" height="80" as="geometry" />
        </mxCell>
      </root>
    </mxGraphModel>
  </diagram>
</mxfile>
